<svg t="1640674398353" class="icon" viewBox="0 0 1024 1024" version="1.1" xmlns="http://www.w3.org/2000/svg" p-id="4047" width="200" height="200"><path d="M672 512h64v64h-64v-64z m128 0h64v64h-64v-64z m-256 0h64v64h-64v-64z m-128 0h64v64h-64v-64z m256 112h64v64h-64v-64z m128 0h64v64h-64v-64z m-256 0h64v64h-64v-64z m-128 0h64v64h-64v-64z m-128 0h64v64h-64v-64z m-128 0h64v64h-64v-64z m512 112h64v64h-64v-64z m-128 0h64v64h-64v-64z m-128 0h64v64h-64v-64z m-128 0h64v64h-64v-64z m-128 0h64v64h-64v-64z m-48-288v432h800V448H112z m576-288v-48c0-8.837 7.163-16 16-16h16c8.837 0 16 7.163 16 16v48h208c8.837 0 16 7.163 16 16v736c0 8.837-7.163 16-16 16H80c-8.837 0-16-7.163-16-16V176c0-8.837 7.163-16 16-16h208v-48c0-8.837 7.163-16 16-16h16c8.837 0 16 7.163 16 16v48h352zM112 400h800V208H112v192z" p-id="4048"></path></svg>